<mxfile host="Electron" modified="2025-04-12T03:30:56.868Z" agent="Mozilla/5.0 (Windows NT 10.0; Win64; x64) AppleWebKit/537.36 (KHTML, like Gecko) draw.io/21.5.0 Chrome/112.0.5615.204 Electron/24.5.1 Safari/537.36" etag="CimBesiYqjDAmDgGw4tG" version="21.5.0" type="device">
  <diagram name="第 1 页" id="nJRzv5rlB3VEnub_vDUY">
    <mxGraphModel dx="1416" dy="818" grid="1" gridSize="10" guides="1" tooltips="1" connect="1" arrows="1" fold="1" page="1" pageScale="1" pageWidth="827" pageHeight="1169" math="0" shadow="0">
      <root>
        <mxCell id="0" />
        <mxCell id="1" parent="0" />
        <mxCell id="pI973K098g65e1ilIYmJ-1" value="1" style="rounded=0;whiteSpace=wrap;html=1;fillColor=#ffe6cc;strokeColor=#d79b00;" parent="1" vertex="1">
          <mxGeometry x="314" y="207" width="70" height="30" as="geometry" />
        </mxCell>
        <mxCell id="LaAcIT-mZOWXAvsEYPyt-2" value="" style="shape=curlyBracket;whiteSpace=wrap;html=1;rounded=1;labelPosition=left;verticalLabelPosition=middle;align=right;verticalAlign=middle;rotation=90;size=0.5;" parent="1" vertex="1">
          <mxGeometry x="234" y="30" width="20" height="280" as="geometry" />
        </mxCell>
        <mxCell id="LaAcIT-mZOWXAvsEYPyt-3" value="&lt;font style=&quot;font-size: 16px;&quot;&gt;向量寄存器长度 &lt;font color=&quot;#ff0000&quot;&gt;128&amp;nbsp;&lt;/font&gt;bit&lt;/font&gt;" style="text;strokeColor=none;align=center;fillColor=none;html=1;verticalAlign=middle;whiteSpace=wrap;rounded=0;" parent="1" vertex="1">
          <mxGeometry x="139.25" y="124" width="237.5" height="30" as="geometry" />
        </mxCell>
        <mxCell id="a2nmbCxX_LsTJUr5ybK8-1" value="2" style="rounded=0;whiteSpace=wrap;html=1;fillColor=#ffe6cc;strokeColor=#d79b00;" parent="1" vertex="1">
          <mxGeometry x="244" y="207" width="70" height="30" as="geometry" />
        </mxCell>
        <mxCell id="a2nmbCxX_LsTJUr5ybK8-2" value="3" style="rounded=0;whiteSpace=wrap;html=1;fillColor=#ffe6cc;strokeColor=#d79b00;" parent="1" vertex="1">
          <mxGeometry x="174" y="207" width="70" height="30" as="geometry" />
        </mxCell>
        <mxCell id="a2nmbCxX_LsTJUr5ybK8-3" value="4" style="rounded=0;whiteSpace=wrap;html=1;fillColor=#ffe6cc;strokeColor=#d79b00;" parent="1" vertex="1">
          <mxGeometry x="104" y="207" width="70" height="30" as="geometry" />
        </mxCell>
        <mxCell id="a2nmbCxX_LsTJUr5ybK8-4" value="5" style="rounded=0;whiteSpace=wrap;html=1;fillColor=#ffe6cc;strokeColor=#d79b00;" parent="1" vertex="1">
          <mxGeometry x="314" y="260.5" width="70" height="30" as="geometry" />
        </mxCell>
        <mxCell id="a2nmbCxX_LsTJUr5ybK8-5" value="6" style="rounded=0;whiteSpace=wrap;html=1;fillColor=#ffe6cc;strokeColor=#d79b00;" parent="1" vertex="1">
          <mxGeometry x="244" y="260.5" width="70" height="30" as="geometry" />
        </mxCell>
        <mxCell id="a2nmbCxX_LsTJUr5ybK8-6" value="7" style="rounded=0;whiteSpace=wrap;html=1;fillColor=#ffe6cc;strokeColor=#d79b00;" parent="1" vertex="1">
          <mxGeometry x="174" y="260.5" width="70" height="30" as="geometry" />
        </mxCell>
        <mxCell id="a2nmbCxX_LsTJUr5ybK8-7" value="8" style="rounded=0;whiteSpace=wrap;html=1;fillColor=#ffe6cc;strokeColor=#d79b00;" parent="1" vertex="1">
          <mxGeometry x="104" y="260.5" width="70" height="30" as="geometry" />
        </mxCell>
        <mxCell id="a2nmbCxX_LsTJUr5ybK8-8" value="9" style="rounded=0;whiteSpace=wrap;html=1;fillColor=#ffe6cc;strokeColor=#d79b00;" parent="1" vertex="1">
          <mxGeometry x="314" y="315.5" width="70" height="30" as="geometry" />
        </mxCell>
        <mxCell id="a2nmbCxX_LsTJUr5ybK8-9" value="10" style="rounded=0;whiteSpace=wrap;html=1;fillColor=#ffe6cc;strokeColor=#d79b00;" parent="1" vertex="1">
          <mxGeometry x="244" y="315.5" width="70" height="30" as="geometry" />
        </mxCell>
        <mxCell id="a2nmbCxX_LsTJUr5ybK8-10" value="11" style="rounded=0;whiteSpace=wrap;html=1;fillColor=#ffe6cc;strokeColor=#d79b00;" parent="1" vertex="1">
          <mxGeometry x="174" y="315.5" width="70" height="30" as="geometry" />
        </mxCell>
        <mxCell id="a2nmbCxX_LsTJUr5ybK8-11" value="12" style="rounded=0;whiteSpace=wrap;html=1;fillColor=#ffe6cc;strokeColor=#d79b00;" parent="1" vertex="1">
          <mxGeometry x="104" y="315.5" width="70" height="30" as="geometry" />
        </mxCell>
        <mxCell id="a2nmbCxX_LsTJUr5ybK8-12" value="13" style="rounded=0;whiteSpace=wrap;html=1;fillColor=#ffe6cc;strokeColor=#d79b00;" parent="1" vertex="1">
          <mxGeometry x="314" y="370.5" width="70" height="30" as="geometry" />
        </mxCell>
        <mxCell id="a2nmbCxX_LsTJUr5ybK8-13" value="14" style="rounded=0;whiteSpace=wrap;html=1;fillColor=#ffe6cc;strokeColor=#d79b00;" parent="1" vertex="1">
          <mxGeometry x="244" y="370.5" width="70" height="30" as="geometry" />
        </mxCell>
        <mxCell id="a2nmbCxX_LsTJUr5ybK8-14" value="15" style="rounded=0;whiteSpace=wrap;html=1;fillColor=#ffe6cc;strokeColor=#d79b00;" parent="1" vertex="1">
          <mxGeometry x="174" y="370.5" width="70" height="30" as="geometry" />
        </mxCell>
        <mxCell id="a2nmbCxX_LsTJUr5ybK8-15" value="16" style="rounded=0;whiteSpace=wrap;html=1;fillColor=#ffe6cc;strokeColor=#d79b00;" parent="1" vertex="1">
          <mxGeometry x="104" y="370.5" width="70" height="30" as="geometry" />
        </mxCell>
        <mxCell id="a2nmbCxX_LsTJUr5ybK8-16" value="V0" style="text;strokeColor=none;align=center;fillColor=none;html=1;verticalAlign=middle;whiteSpace=wrap;rounded=0;" parent="1" vertex="1">
          <mxGeometry x="40" y="207" width="60" height="30" as="geometry" />
        </mxCell>
        <mxCell id="a2nmbCxX_LsTJUr5ybK8-21" value="v1" style="text;strokeColor=none;align=center;fillColor=none;html=1;verticalAlign=middle;whiteSpace=wrap;rounded=0;" parent="1" vertex="1">
          <mxGeometry x="40" y="260.5" width="60" height="30" as="geometry" />
        </mxCell>
        <mxCell id="a2nmbCxX_LsTJUr5ybK8-22" value="v2" style="text;strokeColor=none;align=center;fillColor=none;html=1;verticalAlign=middle;whiteSpace=wrap;rounded=0;" parent="1" vertex="1">
          <mxGeometry x="40" y="317" width="60" height="30" as="geometry" />
        </mxCell>
        <mxCell id="a2nmbCxX_LsTJUr5ybK8-23" value="v3" style="text;strokeColor=none;align=center;fillColor=none;html=1;verticalAlign=middle;whiteSpace=wrap;rounded=0;" parent="1" vertex="1">
          <mxGeometry x="40" y="370.5" width="60" height="30" as="geometry" />
        </mxCell>
        <mxCell id="MxPVoggxsAmG-pphfZcT-1" value="1" style="rounded=0;whiteSpace=wrap;html=1;fillColor=#ffe6cc;strokeColor=#d79b00;" vertex="1" parent="1">
          <mxGeometry x="865" y="208" width="70" height="30" as="geometry" />
        </mxCell>
        <mxCell id="MxPVoggxsAmG-pphfZcT-2" value="" style="shape=curlyBracket;whiteSpace=wrap;html=1;rounded=1;labelPosition=left;verticalLabelPosition=middle;align=right;verticalAlign=middle;rotation=90;size=0.5;" vertex="1" parent="1">
          <mxGeometry x="785" y="31" width="20" height="280" as="geometry" />
        </mxCell>
        <mxCell id="MxPVoggxsAmG-pphfZcT-3" value="&lt;font style=&quot;font-size: 16px;&quot;&gt;向量寄存器长度 &lt;font color=&quot;#ff0000&quot;&gt;128&amp;nbsp;&lt;/font&gt;bit&lt;/font&gt;" style="text;strokeColor=none;align=center;fillColor=none;html=1;verticalAlign=middle;whiteSpace=wrap;rounded=0;" vertex="1" parent="1">
          <mxGeometry x="690.25" y="125" width="237.5" height="30" as="geometry" />
        </mxCell>
        <mxCell id="MxPVoggxsAmG-pphfZcT-4" value="2" style="rounded=0;whiteSpace=wrap;html=1;fillColor=#ffe6cc;strokeColor=#d79b00;" vertex="1" parent="1">
          <mxGeometry x="795" y="208" width="70" height="30" as="geometry" />
        </mxCell>
        <mxCell id="MxPVoggxsAmG-pphfZcT-5" value="3" style="rounded=0;whiteSpace=wrap;html=1;fillColor=#ffe6cc;strokeColor=#d79b00;" vertex="1" parent="1">
          <mxGeometry x="725" y="208" width="70" height="30" as="geometry" />
        </mxCell>
        <mxCell id="MxPVoggxsAmG-pphfZcT-6" value="4" style="rounded=0;whiteSpace=wrap;html=1;fillColor=#ffe6cc;strokeColor=#d79b00;" vertex="1" parent="1">
          <mxGeometry x="655" y="208" width="70" height="30" as="geometry" />
        </mxCell>
        <mxCell id="MxPVoggxsAmG-pphfZcT-7" value="5" style="rounded=0;whiteSpace=wrap;html=1;fillColor=#ffe6cc;strokeColor=#d79b00;" vertex="1" parent="1">
          <mxGeometry x="865" y="261.5" width="70" height="30" as="geometry" />
        </mxCell>
        <mxCell id="MxPVoggxsAmG-pphfZcT-8" value="6" style="rounded=0;whiteSpace=wrap;html=1;fillColor=#ffe6cc;strokeColor=#d79b00;" vertex="1" parent="1">
          <mxGeometry x="795" y="261.5" width="70" height="30" as="geometry" />
        </mxCell>
        <mxCell id="MxPVoggxsAmG-pphfZcT-9" value="7" style="rounded=0;whiteSpace=wrap;html=1;fillColor=#ffe6cc;strokeColor=#d79b00;" vertex="1" parent="1">
          <mxGeometry x="725" y="261.5" width="70" height="30" as="geometry" />
        </mxCell>
        <mxCell id="MxPVoggxsAmG-pphfZcT-10" value="8" style="rounded=0;whiteSpace=wrap;html=1;fillColor=#ffe6cc;strokeColor=#d79b00;" vertex="1" parent="1">
          <mxGeometry x="655" y="261.5" width="70" height="30" as="geometry" />
        </mxCell>
        <mxCell id="MxPVoggxsAmG-pphfZcT-11" value="9" style="rounded=0;whiteSpace=wrap;html=1;fillColor=#ffe6cc;strokeColor=#d79b00;" vertex="1" parent="1">
          <mxGeometry x="865" y="316.5" width="70" height="30" as="geometry" />
        </mxCell>
        <mxCell id="MxPVoggxsAmG-pphfZcT-12" value="10" style="rounded=0;whiteSpace=wrap;html=1;fillColor=#ffe6cc;strokeColor=#d79b00;" vertex="1" parent="1">
          <mxGeometry x="795" y="316.5" width="70" height="30" as="geometry" />
        </mxCell>
        <mxCell id="MxPVoggxsAmG-pphfZcT-13" value="11" style="rounded=0;whiteSpace=wrap;html=1;fillColor=#ffe6cc;strokeColor=#d79b00;" vertex="1" parent="1">
          <mxGeometry x="725" y="316.5" width="70" height="30" as="geometry" />
        </mxCell>
        <mxCell id="MxPVoggxsAmG-pphfZcT-14" value="12" style="rounded=0;whiteSpace=wrap;html=1;fillColor=#ffe6cc;strokeColor=#d79b00;" vertex="1" parent="1">
          <mxGeometry x="655" y="316.5" width="70" height="30" as="geometry" />
        </mxCell>
        <mxCell id="MxPVoggxsAmG-pphfZcT-15" value="13" style="rounded=0;whiteSpace=wrap;html=1;fillColor=#ffe6cc;strokeColor=#d79b00;" vertex="1" parent="1">
          <mxGeometry x="865" y="371.5" width="70" height="30" as="geometry" />
        </mxCell>
        <mxCell id="MxPVoggxsAmG-pphfZcT-16" value="14" style="rounded=0;whiteSpace=wrap;html=1;fillColor=#ffe6cc;strokeColor=#d79b00;" vertex="1" parent="1">
          <mxGeometry x="795" y="371.5" width="70" height="30" as="geometry" />
        </mxCell>
        <mxCell id="MxPVoggxsAmG-pphfZcT-17" value="15" style="rounded=0;whiteSpace=wrap;html=1;fillColor=#ffe6cc;strokeColor=#d79b00;" vertex="1" parent="1">
          <mxGeometry x="725" y="371.5" width="70" height="30" as="geometry" />
        </mxCell>
        <mxCell id="MxPVoggxsAmG-pphfZcT-18" value="16" style="rounded=0;whiteSpace=wrap;html=1;fillColor=#ffe6cc;strokeColor=#d79b00;" vertex="1" parent="1">
          <mxGeometry x="655" y="371.5" width="70" height="30" as="geometry" />
        </mxCell>
        <mxCell id="MxPVoggxsAmG-pphfZcT-19" value="v4" style="text;strokeColor=none;align=center;fillColor=none;html=1;verticalAlign=middle;whiteSpace=wrap;rounded=0;" vertex="1" parent="1">
          <mxGeometry x="591" y="208" width="60" height="30" as="geometry" />
        </mxCell>
        <mxCell id="MxPVoggxsAmG-pphfZcT-20" value="v5" style="text;strokeColor=none;align=center;fillColor=none;html=1;verticalAlign=middle;whiteSpace=wrap;rounded=0;" vertex="1" parent="1">
          <mxGeometry x="591" y="261.5" width="60" height="30" as="geometry" />
        </mxCell>
        <mxCell id="MxPVoggxsAmG-pphfZcT-21" value="v6" style="text;strokeColor=none;align=center;fillColor=none;html=1;verticalAlign=middle;whiteSpace=wrap;rounded=0;" vertex="1" parent="1">
          <mxGeometry x="591" y="318" width="60" height="30" as="geometry" />
        </mxCell>
        <mxCell id="MxPVoggxsAmG-pphfZcT-22" value="v7" style="text;strokeColor=none;align=center;fillColor=none;html=1;verticalAlign=middle;whiteSpace=wrap;rounded=0;" vertex="1" parent="1">
          <mxGeometry x="591" y="371.5" width="60" height="30" as="geometry" />
        </mxCell>
        <mxCell id="MxPVoggxsAmG-pphfZcT-23" value="" style="shape=flexArrow;endArrow=classic;html=1;rounded=0;fillColor=#A9C4EB;strokeColor=none;" edge="1" parent="1">
          <mxGeometry width="50" height="50" relative="1" as="geometry">
            <mxPoint x="420" y="280" as="sourcePoint" />
            <mxPoint x="590" y="280" as="targetPoint" />
          </mxGeometry>
        </mxCell>
        <mxCell id="MxPVoggxsAmG-pphfZcT-24" value="&lt;font color=&quot;#ff0000&quot; style=&quot;font-size: 14px;&quot;&gt;__riscv_vmv_v_v_i32m4&lt;/font&gt;" style="text;strokeColor=none;align=center;fillColor=none;html=1;verticalAlign=middle;whiteSpace=wrap;rounded=0;" vertex="1" parent="1">
          <mxGeometry x="440" y="238" width="120" height="30" as="geometry" />
        </mxCell>
        <mxCell id="MxPVoggxsAmG-pphfZcT-25" value="&lt;font color=&quot;#ff0000&quot; style=&quot;font-size: 18px;&quot;&gt;vx&lt;/font&gt;" style="text;strokeColor=none;align=center;fillColor=none;html=1;verticalAlign=middle;whiteSpace=wrap;rounded=0;" vertex="1" parent="1">
          <mxGeometry x="200" y="170" width="60" height="30" as="geometry" />
        </mxCell>
        <mxCell id="MxPVoggxsAmG-pphfZcT-26" value="&lt;font color=&quot;#ff0000&quot; style=&quot;font-size: 18px;&quot;&gt;vy&lt;/font&gt;" style="text;strokeColor=none;align=center;fillColor=none;html=1;verticalAlign=middle;whiteSpace=wrap;rounded=0;" vertex="1" parent="1">
          <mxGeometry x="765" y="170" width="60" height="30" as="geometry" />
        </mxCell>
        <mxCell id="MxPVoggxsAmG-pphfZcT-27" value="100" style="rounded=0;whiteSpace=wrap;html=1;fillColor=#ffe6cc;strokeColor=#d79b00;" vertex="1" parent="1">
          <mxGeometry x="866" y="551" width="70" height="30" as="geometry" />
        </mxCell>
        <mxCell id="MxPVoggxsAmG-pphfZcT-28" value="" style="shape=curlyBracket;whiteSpace=wrap;html=1;rounded=1;labelPosition=left;verticalLabelPosition=middle;align=right;verticalAlign=middle;rotation=90;size=0.5;" vertex="1" parent="1">
          <mxGeometry x="786" y="374" width="20" height="280" as="geometry" />
        </mxCell>
        <mxCell id="MxPVoggxsAmG-pphfZcT-29" value="&lt;font style=&quot;font-size: 16px;&quot;&gt;向量寄存器长度 &lt;font color=&quot;#ff0000&quot;&gt;128&amp;nbsp;&lt;/font&gt;bit&lt;/font&gt;" style="text;strokeColor=none;align=center;fillColor=none;html=1;verticalAlign=middle;whiteSpace=wrap;rounded=0;" vertex="1" parent="1">
          <mxGeometry x="691.25" y="468" width="237.5" height="30" as="geometry" />
        </mxCell>
        <mxCell id="MxPVoggxsAmG-pphfZcT-30" value="100" style="rounded=0;whiteSpace=wrap;html=1;fillColor=#ffe6cc;strokeColor=#d79b00;" vertex="1" parent="1">
          <mxGeometry x="796" y="551" width="70" height="30" as="geometry" />
        </mxCell>
        <mxCell id="MxPVoggxsAmG-pphfZcT-31" value="100" style="rounded=0;whiteSpace=wrap;html=1;fillColor=#ffe6cc;strokeColor=#d79b00;" vertex="1" parent="1">
          <mxGeometry x="726" y="551" width="70" height="30" as="geometry" />
        </mxCell>
        <mxCell id="MxPVoggxsAmG-pphfZcT-32" value="100" style="rounded=0;whiteSpace=wrap;html=1;fillColor=#ffe6cc;strokeColor=#d79b00;" vertex="1" parent="1">
          <mxGeometry x="656" y="551" width="70" height="30" as="geometry" />
        </mxCell>
        <mxCell id="MxPVoggxsAmG-pphfZcT-33" value="100" style="rounded=0;whiteSpace=wrap;html=1;fillColor=#ffe6cc;strokeColor=#d79b00;" vertex="1" parent="1">
          <mxGeometry x="866" y="604.5" width="70" height="30" as="geometry" />
        </mxCell>
        <mxCell id="MxPVoggxsAmG-pphfZcT-34" value="100" style="rounded=0;whiteSpace=wrap;html=1;fillColor=#ffe6cc;strokeColor=#d79b00;" vertex="1" parent="1">
          <mxGeometry x="796" y="604.5" width="70" height="30" as="geometry" />
        </mxCell>
        <mxCell id="MxPVoggxsAmG-pphfZcT-35" value="100" style="rounded=0;whiteSpace=wrap;html=1;fillColor=#ffe6cc;strokeColor=#d79b00;" vertex="1" parent="1">
          <mxGeometry x="726" y="604.5" width="70" height="30" as="geometry" />
        </mxCell>
        <mxCell id="MxPVoggxsAmG-pphfZcT-36" value="100" style="rounded=0;whiteSpace=wrap;html=1;fillColor=#ffe6cc;strokeColor=#d79b00;" vertex="1" parent="1">
          <mxGeometry x="656" y="604.5" width="70" height="30" as="geometry" />
        </mxCell>
        <mxCell id="MxPVoggxsAmG-pphfZcT-37" value="100" style="rounded=0;whiteSpace=wrap;html=1;fillColor=#ffe6cc;strokeColor=#d79b00;" vertex="1" parent="1">
          <mxGeometry x="866" y="659.5" width="70" height="30" as="geometry" />
        </mxCell>
        <mxCell id="MxPVoggxsAmG-pphfZcT-38" value="100" style="rounded=0;whiteSpace=wrap;html=1;fillColor=#ffe6cc;strokeColor=#d79b00;" vertex="1" parent="1">
          <mxGeometry x="796" y="659.5" width="70" height="30" as="geometry" />
        </mxCell>
        <mxCell id="MxPVoggxsAmG-pphfZcT-39" value="100" style="rounded=0;whiteSpace=wrap;html=1;fillColor=#ffe6cc;strokeColor=#d79b00;" vertex="1" parent="1">
          <mxGeometry x="726" y="659.5" width="70" height="30" as="geometry" />
        </mxCell>
        <mxCell id="MxPVoggxsAmG-pphfZcT-40" value="100" style="rounded=0;whiteSpace=wrap;html=1;fillColor=#ffe6cc;strokeColor=#d79b00;" vertex="1" parent="1">
          <mxGeometry x="656" y="659.5" width="70" height="30" as="geometry" />
        </mxCell>
        <mxCell id="MxPVoggxsAmG-pphfZcT-41" value="100" style="rounded=0;whiteSpace=wrap;html=1;fillColor=#ffe6cc;strokeColor=#d79b00;" vertex="1" parent="1">
          <mxGeometry x="866" y="714.5" width="70" height="30" as="geometry" />
        </mxCell>
        <mxCell id="MxPVoggxsAmG-pphfZcT-42" value="100" style="rounded=0;whiteSpace=wrap;html=1;fillColor=#ffe6cc;strokeColor=#d79b00;" vertex="1" parent="1">
          <mxGeometry x="796" y="714.5" width="70" height="30" as="geometry" />
        </mxCell>
        <mxCell id="MxPVoggxsAmG-pphfZcT-43" value="100" style="rounded=0;whiteSpace=wrap;html=1;fillColor=#ffe6cc;strokeColor=#d79b00;" vertex="1" parent="1">
          <mxGeometry x="726" y="714.5" width="70" height="30" as="geometry" />
        </mxCell>
        <mxCell id="MxPVoggxsAmG-pphfZcT-44" value="100" style="rounded=0;whiteSpace=wrap;html=1;fillColor=#ffe6cc;strokeColor=#d79b00;" vertex="1" parent="1">
          <mxGeometry x="656" y="714.5" width="70" height="30" as="geometry" />
        </mxCell>
        <mxCell id="MxPVoggxsAmG-pphfZcT-45" value="v8" style="text;strokeColor=none;align=center;fillColor=none;html=1;verticalAlign=middle;whiteSpace=wrap;rounded=0;" vertex="1" parent="1">
          <mxGeometry x="592" y="551" width="60" height="30" as="geometry" />
        </mxCell>
        <mxCell id="MxPVoggxsAmG-pphfZcT-46" value="v9" style="text;strokeColor=none;align=center;fillColor=none;html=1;verticalAlign=middle;whiteSpace=wrap;rounded=0;" vertex="1" parent="1">
          <mxGeometry x="592" y="604.5" width="60" height="30" as="geometry" />
        </mxCell>
        <mxCell id="MxPVoggxsAmG-pphfZcT-47" value="v10" style="text;strokeColor=none;align=center;fillColor=none;html=1;verticalAlign=middle;whiteSpace=wrap;rounded=0;" vertex="1" parent="1">
          <mxGeometry x="592" y="661" width="60" height="30" as="geometry" />
        </mxCell>
        <mxCell id="MxPVoggxsAmG-pphfZcT-48" value="v11" style="text;strokeColor=none;align=center;fillColor=none;html=1;verticalAlign=middle;whiteSpace=wrap;rounded=0;" vertex="1" parent="1">
          <mxGeometry x="592" y="714.5" width="60" height="30" as="geometry" />
        </mxCell>
        <mxCell id="MxPVoggxsAmG-pphfZcT-49" value="&lt;font color=&quot;#ff0000&quot; style=&quot;font-size: 18px;&quot;&gt;vz&lt;/font&gt;" style="text;strokeColor=none;align=center;fillColor=none;html=1;verticalAlign=middle;whiteSpace=wrap;rounded=0;" vertex="1" parent="1">
          <mxGeometry x="765" y="512" width="60" height="30" as="geometry" />
        </mxCell>
        <mxCell id="MxPVoggxsAmG-pphfZcT-50" value="100" style="rounded=0;whiteSpace=wrap;html=1;fillColor=#ffe6cc;strokeColor=#d79b00;" vertex="1" parent="1">
          <mxGeometry x="306.75" y="624" width="70" height="30" as="geometry" />
        </mxCell>
        <mxCell id="MxPVoggxsAmG-pphfZcT-51" value="" style="shape=flexArrow;endArrow=classic;html=1;rounded=0;fillColor=#A9C4EB;strokeColor=none;" edge="1" parent="1">
          <mxGeometry width="50" height="50" relative="1" as="geometry">
            <mxPoint x="423" y="640" as="sourcePoint" />
            <mxPoint x="593" y="640" as="targetPoint" />
          </mxGeometry>
        </mxCell>
        <mxCell id="MxPVoggxsAmG-pphfZcT-52" value="&lt;font style=&quot;font-size: 16px;&quot; color=&quot;#ff0000&quot;&gt;__riscv_vmv_v_x_i32m4&lt;/font&gt;" style="text;strokeColor=none;align=center;fillColor=none;html=1;verticalAlign=middle;whiteSpace=wrap;rounded=0;" vertex="1" parent="1">
          <mxGeometry x="440" y="600" width="120" height="30" as="geometry" />
        </mxCell>
        <mxCell id="MxPVoggxsAmG-pphfZcT-53" value="1" style="rounded=0;whiteSpace=wrap;html=1;fillColor=#ffe6cc;strokeColor=#d79b00;" vertex="1" parent="1">
          <mxGeometry x="314" y="872.5" width="70" height="30" as="geometry" />
        </mxCell>
        <mxCell id="MxPVoggxsAmG-pphfZcT-54" value="" style="shape=curlyBracket;whiteSpace=wrap;html=1;rounded=1;labelPosition=left;verticalLabelPosition=middle;align=right;verticalAlign=middle;rotation=90;size=0.5;" vertex="1" parent="1">
          <mxGeometry x="234" y="695.5" width="20" height="280" as="geometry" />
        </mxCell>
        <mxCell id="MxPVoggxsAmG-pphfZcT-55" value="&lt;font style=&quot;font-size: 16px;&quot;&gt;向量寄存器长度 &lt;font color=&quot;#ff0000&quot;&gt;128&amp;nbsp;&lt;/font&gt;bit&lt;/font&gt;" style="text;strokeColor=none;align=center;fillColor=none;html=1;verticalAlign=middle;whiteSpace=wrap;rounded=0;" vertex="1" parent="1">
          <mxGeometry x="139.25" y="789.5" width="237.5" height="30" as="geometry" />
        </mxCell>
        <mxCell id="MxPVoggxsAmG-pphfZcT-56" value="2" style="rounded=0;whiteSpace=wrap;html=1;fillColor=#ffe6cc;strokeColor=#d79b00;" vertex="1" parent="1">
          <mxGeometry x="244" y="872.5" width="70" height="30" as="geometry" />
        </mxCell>
        <mxCell id="MxPVoggxsAmG-pphfZcT-57" value="3" style="rounded=0;whiteSpace=wrap;html=1;fillColor=#ffe6cc;strokeColor=#d79b00;" vertex="1" parent="1">
          <mxGeometry x="174" y="872.5" width="70" height="30" as="geometry" />
        </mxCell>
        <mxCell id="MxPVoggxsAmG-pphfZcT-58" value="4" style="rounded=0;whiteSpace=wrap;html=1;fillColor=#ffe6cc;strokeColor=#d79b00;" vertex="1" parent="1">
          <mxGeometry x="104" y="872.5" width="70" height="30" as="geometry" />
        </mxCell>
        <mxCell id="MxPVoggxsAmG-pphfZcT-59" value="5" style="rounded=0;whiteSpace=wrap;html=1;fillColor=#ffe6cc;strokeColor=#d79b00;" vertex="1" parent="1">
          <mxGeometry x="314" y="926" width="70" height="30" as="geometry" />
        </mxCell>
        <mxCell id="MxPVoggxsAmG-pphfZcT-60" value="6" style="rounded=0;whiteSpace=wrap;html=1;fillColor=#ffe6cc;strokeColor=#d79b00;" vertex="1" parent="1">
          <mxGeometry x="244" y="926" width="70" height="30" as="geometry" />
        </mxCell>
        <mxCell id="MxPVoggxsAmG-pphfZcT-61" value="7" style="rounded=0;whiteSpace=wrap;html=1;fillColor=#ffe6cc;strokeColor=#d79b00;" vertex="1" parent="1">
          <mxGeometry x="174" y="926" width="70" height="30" as="geometry" />
        </mxCell>
        <mxCell id="MxPVoggxsAmG-pphfZcT-62" value="8" style="rounded=0;whiteSpace=wrap;html=1;fillColor=#ffe6cc;strokeColor=#d79b00;" vertex="1" parent="1">
          <mxGeometry x="104" y="926" width="70" height="30" as="geometry" />
        </mxCell>
        <mxCell id="MxPVoggxsAmG-pphfZcT-63" value="9" style="rounded=0;whiteSpace=wrap;html=1;fillColor=#ffe6cc;strokeColor=#d79b00;" vertex="1" parent="1">
          <mxGeometry x="314" y="981" width="70" height="30" as="geometry" />
        </mxCell>
        <mxCell id="MxPVoggxsAmG-pphfZcT-64" value="10" style="rounded=0;whiteSpace=wrap;html=1;fillColor=#ffe6cc;strokeColor=#d79b00;" vertex="1" parent="1">
          <mxGeometry x="244" y="981" width="70" height="30" as="geometry" />
        </mxCell>
        <mxCell id="MxPVoggxsAmG-pphfZcT-65" value="11" style="rounded=0;whiteSpace=wrap;html=1;fillColor=#ffe6cc;strokeColor=#d79b00;" vertex="1" parent="1">
          <mxGeometry x="174" y="981" width="70" height="30" as="geometry" />
        </mxCell>
        <mxCell id="MxPVoggxsAmG-pphfZcT-66" value="12" style="rounded=0;whiteSpace=wrap;html=1;fillColor=#ffe6cc;strokeColor=#d79b00;" vertex="1" parent="1">
          <mxGeometry x="104" y="981" width="70" height="30" as="geometry" />
        </mxCell>
        <mxCell id="MxPVoggxsAmG-pphfZcT-67" value="13" style="rounded=0;whiteSpace=wrap;html=1;fillColor=#ffe6cc;strokeColor=#d79b00;" vertex="1" parent="1">
          <mxGeometry x="314" y="1036" width="70" height="30" as="geometry" />
        </mxCell>
        <mxCell id="MxPVoggxsAmG-pphfZcT-68" value="14" style="rounded=0;whiteSpace=wrap;html=1;fillColor=#ffe6cc;strokeColor=#d79b00;" vertex="1" parent="1">
          <mxGeometry x="244" y="1036" width="70" height="30" as="geometry" />
        </mxCell>
        <mxCell id="MxPVoggxsAmG-pphfZcT-69" value="15" style="rounded=0;whiteSpace=wrap;html=1;fillColor=#ffe6cc;strokeColor=#d79b00;" vertex="1" parent="1">
          <mxGeometry x="174" y="1036" width="70" height="30" as="geometry" />
        </mxCell>
        <mxCell id="MxPVoggxsAmG-pphfZcT-70" value="16" style="rounded=0;whiteSpace=wrap;html=1;fillColor=#ffe6cc;strokeColor=#d79b00;" vertex="1" parent="1">
          <mxGeometry x="104" y="1036" width="70" height="30" as="geometry" />
        </mxCell>
        <mxCell id="MxPVoggxsAmG-pphfZcT-71" value="v4" style="text;strokeColor=none;align=center;fillColor=none;html=1;verticalAlign=middle;whiteSpace=wrap;rounded=0;" vertex="1" parent="1">
          <mxGeometry x="40" y="872.5" width="60" height="30" as="geometry" />
        </mxCell>
        <mxCell id="MxPVoggxsAmG-pphfZcT-72" value="v5" style="text;strokeColor=none;align=center;fillColor=none;html=1;verticalAlign=middle;whiteSpace=wrap;rounded=0;" vertex="1" parent="1">
          <mxGeometry x="40" y="926" width="60" height="30" as="geometry" />
        </mxCell>
        <mxCell id="MxPVoggxsAmG-pphfZcT-73" value="v6" style="text;strokeColor=none;align=center;fillColor=none;html=1;verticalAlign=middle;whiteSpace=wrap;rounded=0;" vertex="1" parent="1">
          <mxGeometry x="40" y="982.5" width="60" height="30" as="geometry" />
        </mxCell>
        <mxCell id="MxPVoggxsAmG-pphfZcT-74" value="v7" style="text;strokeColor=none;align=center;fillColor=none;html=1;verticalAlign=middle;whiteSpace=wrap;rounded=0;" vertex="1" parent="1">
          <mxGeometry x="40" y="1036" width="60" height="30" as="geometry" />
        </mxCell>
        <mxCell id="MxPVoggxsAmG-pphfZcT-75" value="&lt;font color=&quot;#ff0000&quot; style=&quot;font-size: 18px;&quot;&gt;vy&lt;/font&gt;" style="text;strokeColor=none;align=center;fillColor=none;html=1;verticalAlign=middle;whiteSpace=wrap;rounded=0;" vertex="1" parent="1">
          <mxGeometry x="214" y="834.5" width="60" height="30" as="geometry" />
        </mxCell>
        <mxCell id="MxPVoggxsAmG-pphfZcT-76" value="1" style="rounded=0;whiteSpace=wrap;html=1;fillColor=#ffe6cc;strokeColor=#d79b00;" vertex="1" parent="1">
          <mxGeometry x="652" y="951" width="70" height="30" as="geometry" />
        </mxCell>
        <mxCell id="MxPVoggxsAmG-pphfZcT-77" value="" style="shape=flexArrow;endArrow=classic;html=1;rounded=0;fillColor=#A9C4EB;strokeColor=none;" edge="1" parent="1">
          <mxGeometry width="50" height="50" relative="1" as="geometry">
            <mxPoint x="433" y="965.5" as="sourcePoint" />
            <mxPoint x="603" y="965.5" as="targetPoint" />
          </mxGeometry>
        </mxCell>
        <mxCell id="MxPVoggxsAmG-pphfZcT-78" value="&lt;font style=&quot;font-size: 16px;&quot; color=&quot;#ff0000&quot;&gt;__riscv_vmv_x_s_i32m4_i32&lt;/font&gt;" style="text;strokeColor=none;align=center;fillColor=none;html=1;verticalAlign=middle;whiteSpace=wrap;rounded=0;" vertex="1" parent="1">
          <mxGeometry x="460" y="926" width="120" height="30" as="geometry" />
        </mxCell>
        <mxCell id="MxPVoggxsAmG-pphfZcT-79" value="" style="curved=1;endArrow=classic;html=1;rounded=0;" edge="1" parent="1">
          <mxGeometry width="50" height="50" relative="1" as="geometry">
            <mxPoint x="384" y="891" as="sourcePoint" />
            <mxPoint x="684" y="951" as="targetPoint" />
            <Array as="points">
              <mxPoint x="434" y="891" />
              <mxPoint x="384" y="841" />
            </Array>
          </mxGeometry>
        </mxCell>
        <mxCell id="MxPVoggxsAmG-pphfZcT-80" value="200" style="rounded=0;whiteSpace=wrap;html=1;fillColor=#ffe6cc;strokeColor=#d79b00;" vertex="1" parent="1">
          <mxGeometry x="866.25" y="1188" width="70" height="30" as="geometry" />
        </mxCell>
        <mxCell id="MxPVoggxsAmG-pphfZcT-81" value="" style="shape=curlyBracket;whiteSpace=wrap;html=1;rounded=1;labelPosition=left;verticalLabelPosition=middle;align=right;verticalAlign=middle;rotation=90;size=0.5;" vertex="1" parent="1">
          <mxGeometry x="786.25" y="1011" width="20" height="280" as="geometry" />
        </mxCell>
        <mxCell id="MxPVoggxsAmG-pphfZcT-82" value="&lt;font style=&quot;font-size: 16px;&quot;&gt;向量寄存器长度 &lt;font color=&quot;#ff0000&quot;&gt;128&amp;nbsp;&lt;/font&gt;bit&lt;/font&gt;" style="text;strokeColor=none;align=center;fillColor=none;html=1;verticalAlign=middle;whiteSpace=wrap;rounded=0;" vertex="1" parent="1">
          <mxGeometry x="691.5" y="1105" width="237.5" height="30" as="geometry" />
        </mxCell>
        <mxCell id="MxPVoggxsAmG-pphfZcT-83" value="x" style="rounded=0;whiteSpace=wrap;html=1;fillColor=#ffe6cc;strokeColor=#d79b00;" vertex="1" parent="1">
          <mxGeometry x="796.25" y="1188" width="70" height="30" as="geometry" />
        </mxCell>
        <mxCell id="MxPVoggxsAmG-pphfZcT-84" value="x" style="rounded=0;whiteSpace=wrap;html=1;fillColor=#ffe6cc;strokeColor=#d79b00;" vertex="1" parent="1">
          <mxGeometry x="726.25" y="1188" width="70" height="30" as="geometry" />
        </mxCell>
        <mxCell id="MxPVoggxsAmG-pphfZcT-85" value="x" style="rounded=0;whiteSpace=wrap;html=1;fillColor=#ffe6cc;strokeColor=#d79b00;" vertex="1" parent="1">
          <mxGeometry x="656.25" y="1188" width="70" height="30" as="geometry" />
        </mxCell>
        <mxCell id="MxPVoggxsAmG-pphfZcT-86" value="x" style="rounded=0;whiteSpace=wrap;html=1;fillColor=#ffe6cc;strokeColor=#d79b00;" vertex="1" parent="1">
          <mxGeometry x="866.25" y="1241.5" width="70" height="30" as="geometry" />
        </mxCell>
        <mxCell id="MxPVoggxsAmG-pphfZcT-87" value="x" style="rounded=0;whiteSpace=wrap;html=1;fillColor=#ffe6cc;strokeColor=#d79b00;" vertex="1" parent="1">
          <mxGeometry x="796.25" y="1241.5" width="70" height="30" as="geometry" />
        </mxCell>
        <mxCell id="MxPVoggxsAmG-pphfZcT-88" value="x" style="rounded=0;whiteSpace=wrap;html=1;fillColor=#ffe6cc;strokeColor=#d79b00;" vertex="1" parent="1">
          <mxGeometry x="726.25" y="1241.5" width="70" height="30" as="geometry" />
        </mxCell>
        <mxCell id="MxPVoggxsAmG-pphfZcT-89" value="x" style="rounded=0;whiteSpace=wrap;html=1;fillColor=#ffe6cc;strokeColor=#d79b00;" vertex="1" parent="1">
          <mxGeometry x="656.25" y="1241.5" width="70" height="30" as="geometry" />
        </mxCell>
        <mxCell id="MxPVoggxsAmG-pphfZcT-90" value="x" style="rounded=0;whiteSpace=wrap;html=1;fillColor=#ffe6cc;strokeColor=#d79b00;" vertex="1" parent="1">
          <mxGeometry x="866.25" y="1296.5" width="70" height="30" as="geometry" />
        </mxCell>
        <mxCell id="MxPVoggxsAmG-pphfZcT-91" value="x" style="rounded=0;whiteSpace=wrap;html=1;fillColor=#ffe6cc;strokeColor=#d79b00;" vertex="1" parent="1">
          <mxGeometry x="796.25" y="1296.5" width="70" height="30" as="geometry" />
        </mxCell>
        <mxCell id="MxPVoggxsAmG-pphfZcT-92" value="x" style="rounded=0;whiteSpace=wrap;html=1;fillColor=#ffe6cc;strokeColor=#d79b00;" vertex="1" parent="1">
          <mxGeometry x="726.25" y="1296.5" width="70" height="30" as="geometry" />
        </mxCell>
        <mxCell id="MxPVoggxsAmG-pphfZcT-93" value="x" style="rounded=0;whiteSpace=wrap;html=1;fillColor=#ffe6cc;strokeColor=#d79b00;" vertex="1" parent="1">
          <mxGeometry x="656.25" y="1296.5" width="70" height="30" as="geometry" />
        </mxCell>
        <mxCell id="MxPVoggxsAmG-pphfZcT-94" value="x" style="rounded=0;whiteSpace=wrap;html=1;fillColor=#ffe6cc;strokeColor=#d79b00;" vertex="1" parent="1">
          <mxGeometry x="866.25" y="1351.5" width="70" height="30" as="geometry" />
        </mxCell>
        <mxCell id="MxPVoggxsAmG-pphfZcT-95" value="x" style="rounded=0;whiteSpace=wrap;html=1;fillColor=#ffe6cc;strokeColor=#d79b00;" vertex="1" parent="1">
          <mxGeometry x="796.25" y="1351.5" width="70" height="30" as="geometry" />
        </mxCell>
        <mxCell id="MxPVoggxsAmG-pphfZcT-96" value="x" style="rounded=0;whiteSpace=wrap;html=1;fillColor=#ffe6cc;strokeColor=#d79b00;" vertex="1" parent="1">
          <mxGeometry x="726.25" y="1351.5" width="70" height="30" as="geometry" />
        </mxCell>
        <mxCell id="MxPVoggxsAmG-pphfZcT-97" value="x" style="rounded=0;whiteSpace=wrap;html=1;fillColor=#ffe6cc;strokeColor=#d79b00;" vertex="1" parent="1">
          <mxGeometry x="656.25" y="1351.5" width="70" height="30" as="geometry" />
        </mxCell>
        <mxCell id="MxPVoggxsAmG-pphfZcT-98" value="v12" style="text;strokeColor=none;align=center;fillColor=none;html=1;verticalAlign=middle;whiteSpace=wrap;rounded=0;" vertex="1" parent="1">
          <mxGeometry x="592.25" y="1188" width="60" height="30" as="geometry" />
        </mxCell>
        <mxCell id="MxPVoggxsAmG-pphfZcT-99" value="v13" style="text;strokeColor=none;align=center;fillColor=none;html=1;verticalAlign=middle;whiteSpace=wrap;rounded=0;" vertex="1" parent="1">
          <mxGeometry x="592.25" y="1241.5" width="60" height="30" as="geometry" />
        </mxCell>
        <mxCell id="MxPVoggxsAmG-pphfZcT-100" value="v14" style="text;strokeColor=none;align=center;fillColor=none;html=1;verticalAlign=middle;whiteSpace=wrap;rounded=0;" vertex="1" parent="1">
          <mxGeometry x="592.25" y="1298" width="60" height="30" as="geometry" />
        </mxCell>
        <mxCell id="MxPVoggxsAmG-pphfZcT-101" value="v11" style="text;strokeColor=none;align=center;fillColor=none;html=1;verticalAlign=middle;whiteSpace=wrap;rounded=0;" vertex="1" parent="1">
          <mxGeometry x="592.25" y="1351.5" width="60" height="30" as="geometry" />
        </mxCell>
        <mxCell id="MxPVoggxsAmG-pphfZcT-102" value="&lt;font color=&quot;#ff0000&quot; style=&quot;font-size: 18px;&quot;&gt;vs&lt;/font&gt;" style="text;strokeColor=none;align=center;fillColor=none;html=1;verticalAlign=middle;whiteSpace=wrap;rounded=0;" vertex="1" parent="1">
          <mxGeometry x="765.25" y="1149" width="60" height="30" as="geometry" />
        </mxCell>
        <mxCell id="MxPVoggxsAmG-pphfZcT-103" value="200" style="rounded=0;whiteSpace=wrap;html=1;fillColor=#ffe6cc;strokeColor=#d79b00;" vertex="1" parent="1">
          <mxGeometry x="307" y="1261" width="70" height="30" as="geometry" />
        </mxCell>
        <mxCell id="MxPVoggxsAmG-pphfZcT-104" value="" style="shape=flexArrow;endArrow=classic;html=1;rounded=0;fillColor=#A9C4EB;strokeColor=none;" edge="1" parent="1">
          <mxGeometry width="50" height="50" relative="1" as="geometry">
            <mxPoint x="423.25" y="1277" as="sourcePoint" />
            <mxPoint x="593.25" y="1277" as="targetPoint" />
          </mxGeometry>
        </mxCell>
        <mxCell id="MxPVoggxsAmG-pphfZcT-105" value="&lt;font style=&quot;font-size: 16px;&quot; color=&quot;#ff0000&quot;&gt;__riscv_vmv_s_x_i32m4&lt;/font&gt;" style="text;strokeColor=none;align=center;fillColor=none;html=1;verticalAlign=middle;whiteSpace=wrap;rounded=0;" vertex="1" parent="1">
          <mxGeometry x="440.25" y="1237" width="120" height="30" as="geometry" />
        </mxCell>
        <mxCell id="MxPVoggxsAmG-pphfZcT-106" value="" style="curved=1;endArrow=classic;html=1;rounded=0;entryX=0.5;entryY=0;entryDx=0;entryDy=0;" edge="1" parent="1" target="MxPVoggxsAmG-pphfZcT-80">
          <mxGeometry width="50" height="50" relative="1" as="geometry">
            <mxPoint x="350" y="1260" as="sourcePoint" />
            <mxPoint x="400" y="1210" as="targetPoint" />
            <Array as="points">
              <mxPoint x="400" y="1260" />
              <mxPoint x="350" y="1210" />
              <mxPoint x="630" y="1060" />
            </Array>
          </mxGeometry>
        </mxCell>
      </root>
    </mxGraphModel>
  </diagram>
</mxfile>
